<svg width="212" height="52" viewBox="0 0 212 52" fill="none" xmlns="http://www.w3.org/2000/svg">
<path d="M186 2.00012C199.255 2.00012 210 12.7452 210 25.9997C210 39.2548 199.255 50.0003 186 50.0003C172.745 50.0003 162 39.2548 162 25.9997C162 12.7452 172.745 2.00012 186 2.00012Z" fill="black" fill-opacity="0.01" stroke="white" stroke-width="2"/>
<g clip-path="url(#clip0)">
<path d="M186.326 14C179.747 14.001 176.25 18.216 176.25 22.812C176.25 24.943 177.441 27.602 179.348 28.445C179.892 28.69 179.82 28.391 180.288 26.601C180.325 26.452 180.306 26.323 180.186 26.184C177.46 23.031 179.654 16.549 185.937 16.549C195.03 16.549 193.331 29.131 187.519 29.131C186.021 29.131 184.905 27.955 185.258 26.5C185.686 24.767 186.524 22.904 186.524 21.655C186.524 18.507 181.834 18.974 181.834 23.145C181.834 24.434 182.29 25.304 182.29 25.304C182.29 25.304 180.781 31.4 180.501 32.539C180.027 34.467 180.565 37.588 180.612 37.857C180.641 38.005 180.807 38.052 180.9 37.93C181.049 37.735 182.873 35.133 183.384 33.252C183.57 32.567 184.333 29.787 184.333 29.787C184.836 30.695 186.286 31.455 187.831 31.455C192.427 31.455 195.749 27.415 195.749 22.402C195.733 17.596 191.62 14 186.326 14V14Z" fill="white"/>
</g>
<path d="M106 2.00012C119.255 2.00012 130 12.7452 130 25.9997C130 39.2548 119.255 50.0003 106 50.0003C92.7452 50.0003 82 39.2548 82 25.9997C82 12.7452 92.7451 2.00012 106 2.00012Z" fill="black" fill-opacity="0.01" stroke="white" stroke-width="2"/>
<g clip-path="url(#clip1)">
<path d="M117.977 21.0561C117.92 19.7809 117.714 18.9042 117.419 18.1445C117.114 17.3381 116.645 16.6162 116.031 16.016C115.431 15.4065 114.704 14.9329 113.907 14.6329C113.143 14.3375 112.271 14.1313 110.996 14.0751C109.711 14.0141 109.303 14 106.044 14C102.786 14 102.378 14.0141 101.098 14.0703C99.823 14.1266 98.9463 14.333 98.1868 14.6282C97.3803 14.9329 96.6583 15.4018 96.0582 16.016C95.4487 16.6162 94.9753 17.3429 94.6751 18.1399C94.3797 18.9042 94.1735 19.7761 94.1172 21.0513C94.0563 22.336 94.0421 22.7439 94.0421 26.0023C94.0421 29.2608 94.0563 29.6686 94.1125 30.9486C94.1687 32.2238 94.3751 33.1005 94.6705 33.8602C94.9753 34.6666 95.4487 35.3885 96.0582 35.9887C96.6583 36.5982 97.385 37.0718 98.1821 37.3718C98.9463 37.6672 99.8182 37.8734 101.094 37.9296C102.373 37.986 102.781 37.9999 106.04 37.9999C109.298 37.9999 109.706 37.986 110.986 37.9296C112.261 37.8734 113.138 37.6672 113.898 37.3718C115.511 36.7482 116.786 35.4729 117.409 33.8602C117.705 33.096 117.911 32.2238 117.967 30.9486C118.023 29.6686 118.037 29.2608 118.037 26.0023C118.037 22.7439 118.033 22.336 117.977 21.0561ZM115.815 30.8549C115.764 32.027 115.567 32.6599 115.403 33.0819C114.999 34.1274 114.17 34.9572 113.124 35.3605C112.702 35.5246 112.065 35.7215 110.897 35.7729C109.631 35.8293 109.251 35.8433 106.049 35.8433C102.847 35.8433 102.463 35.8293 101.201 35.7729C100.029 35.7215 99.3963 35.5246 98.9743 35.3605C98.454 35.1682 97.9804 34.8634 97.596 34.4649C97.1975 34.0758 96.8927 33.6069 96.7004 33.0866C96.5363 32.6647 96.3395 32.027 96.288 30.8596C96.2316 29.5937 96.2177 29.2139 96.2177 26.0117C96.2177 22.8095 96.2316 22.425 96.288 21.1639C96.3395 19.9918 96.5363 19.3589 96.7004 18.9369C96.8927 18.4165 97.1975 17.943 97.6008 17.5584C97.9898 17.1599 98.4586 16.8552 98.9791 16.6631C99.401 16.499 100.039 16.3021 101.206 16.2504C102.472 16.1942 102.852 16.1801 106.054 16.1801C109.261 16.1801 109.64 16.1942 110.902 16.2504C112.074 16.3021 112.707 16.499 113.129 16.6631C113.649 16.8552 114.123 17.1599 114.507 17.5584C114.906 17.9476 115.21 18.4165 115.403 18.9369C115.567 19.3589 115.764 19.9964 115.815 21.1639C115.871 22.4298 115.886 22.8095 115.886 26.0117C115.886 29.2139 115.871 29.589 115.815 30.8549Z" fill="white"/>
<path d="M106.044 19.8372C102.641 19.8372 99.8792 22.5986 99.8792 26.0024C99.8792 29.4063 102.641 32.1677 106.044 32.1677C109.448 32.1677 112.21 29.4063 112.21 26.0024C112.21 22.5986 109.448 19.8372 106.044 19.8372ZM106.044 30.0017C103.836 30.0017 102.045 28.2107 102.045 26.0024C102.045 23.7941 103.836 22.0032 106.044 22.0032C108.253 22.0032 110.044 23.7941 110.044 26.0024C110.044 28.2107 108.253 30.0017 106.044 30.0017Z" fill="white"/>
<path d="M113.893 19.5931C113.893 20.388 113.249 21.0324 112.454 21.0324C111.659 21.0324 111.014 20.388 111.014 19.5931C111.014 18.7981 111.659 18.1538 112.454 18.1538C113.249 18.1538 113.893 18.7981 113.893 19.5931Z" fill="white"/>
</g>
<path d="M25.9998 2.00012C39.255 2.00012 50.0001 12.7452 50.0001 25.9997C50.0001 39.2548 39.2549 50.0003 25.9998 50.0003C12.7453 50.0003 2.00011 39.2548 2.00011 25.9997C2.00011 12.7452 12.7453 2.00012 25.9998 2.00012Z" fill="black" fill-opacity="0.01" stroke="white" stroke-width="2"/>
<g clip-path="url(#clip2)">
<path d="M30.6636 17.151H32.9458V13.176C32.5521 13.1219 31.1979 13 29.6208 13C26.3302 13 24.0761 15.0698 24.0761 18.874V22.375H20.4448V26.8187H24.0761V38H28.5281V26.8198H32.0125L32.5656 22.376H28.5271V19.3146C28.5281 18.0302 28.874 17.151 30.6636 17.151Z" fill="white"/>
</g>
<defs>
<clipPath id="clip0">
<rect width="24" height="24" fill="white" transform="translate(174 14)"/>
</clipPath>
<clipPath id="clip1">
<rect width="24" height="24" fill="white" transform="translate(94 14)"/>
</clipPath>
<clipPath id="clip2">
<rect width="25" height="25" fill="white" transform="translate(14 13)"/>
</clipPath>
</defs>
</svg>
